<svg width="365" height="11" viewBox="0 0 365 11" fill="none" xmlns="http://www.w3.org/2000/svg">
<path d="M6.02514 9.99697C102.845 0.373721 207.649 2.83339 257.455 4.00227C262.878 4.12955 267.649 4.24152 271.686 4.32092C302.886 5.13582 324.226 5.72669 338.377 6.19383C344.828 6.40678 351.8 6.83905 355.5 7.00903C352.99 7.23554 344 8.31111 331 10.009C343.5 9.50903 352.561 8.8532 355.131 8.62313C355.208 8.61625 355.285 8.60932 355.361 8.60249C356.506 8.50003 357.581 8.40343 358.549 8.31111C359.946 8.17777 363.5 8.00903 364 7.77504C364.236 7.64062 364.725 6.2066 364.5 6.00903C364.084 5.6449 362.767 5.41909 362.114 5.33378C359.602 5.0057 352.572 4.6613 338.443 4.19492C324.283 3.72751 302.936 3.13644 271.735 2.32149L271.729 2.32137C267.696 2.24206 262.927 2.13012 257.505 2.00283C207.711 0.833802 102.78 -1.62969 5.82732 8.00678C1.99951 8.50903 -0.0550273 9.45946 -0.000403099 10.009C0.0542211 10.5586 5.47556 10.0516 6.02514 9.99697Z" fill="#0055FF"/>
</svg>
